<svg width="125" height="36" viewBox="0 0 125 36" fill="none" xmlns="http://www.w3.org/2000/svg">
<path d="M3.06367 27.9594C2.97933 27.9117 2.90109 27.8497 2.83403 27.7724C1.04976 25.7523 0.764233 22.839 2.12276 20.5241L11.6975 4.20864C11.9464 3.7849 12.4971 3.63958 12.928 3.88448C13.3588 4.12937 13.5061 4.67099 13.2582 5.09575L3.68349 21.4113C2.70905 23.0717 2.9143 25.1609 4.19459 26.6099C4.52076 26.9798 4.48113 27.5397 4.10517 27.8608C3.80746 28.1159 3.38679 28.1433 3.06367 27.9594ZM1.12088 19.2733L10.9374 2.54518C11.2809 1.95987 11.7351 1.46296 12.2868 1.06869C12.5551 0.876637 12.615 0.50777 12.4199 0.243568C12.2248 -0.0206348 11.8489 -0.0785561 11.5806 0.112483C10.8917 0.604305 10.3247 1.22416 9.89695 1.95377L0.0803978 18.6818C-0.0852266 18.9643 0.0133352 19.3261 0.299876 19.4887C0.586416 19.6513 0.954244 19.5547 1.12088 19.2722V19.2733ZM15.7233 26.6262L19.2705 20.5811C19.685 19.8748 19.4391 18.9704 18.7208 18.563C18.0024 18.1545 17.0838 18.3973 16.6693 19.1036L13.122 25.1487C12.4585 26.2787 10.9842 26.6679 9.83598 26.0155C8.68677 25.3631 8.29151 23.912 8.95502 22.7821L16.7638 9.47643C17.1783 8.77019 16.9324 7.86581 16.214 7.45832C15.4957 7.04983 14.5771 7.29269 14.1625 7.99892L6.3538 21.3046C4.86217 23.846 5.75024 27.1069 8.33418 28.5742C10.9171 30.0415 14.2326 29.1676 15.7233 26.6262ZM33.9978 8.13915C33.6219 8.46026 33.5823 9.02017 33.9084 9.39005C35.1887 10.8391 35.394 12.9283 34.4195 14.5887L24.8448 30.9043C24.5959 31.328 24.7432 31.8706 25.175 32.1155C25.6059 32.3604 26.1566 32.2151 26.4055 31.7914L35.9803 15.4759C37.3388 13.16 37.0533 10.2477 35.269 8.22756C35.2019 8.15135 35.1237 8.08936 35.0393 8.04059C34.7152 7.85666 34.2956 7.88511 33.9978 8.13915ZM36.9821 16.7267L27.1656 33.4548C26.8221 34.0401 26.3679 34.537 25.8162 34.9313C25.5479 35.1234 25.488 35.4922 25.6831 35.7564C25.8782 36.0206 26.2541 36.0786 26.5224 35.8875C27.2113 35.3957 27.7783 34.7758 28.2061 34.0462L38.0226 17.3182C38.1882 17.0357 38.0897 16.6739 37.8031 16.5113C37.5156 16.3477 37.1488 16.4453 36.9821 16.7278V16.7267ZM22.3797 9.37379L18.8325 15.4189C18.418 16.1252 18.6639 17.0296 19.3822 17.437C20.1006 17.8455 21.0192 17.6027 21.4338 16.8964L24.981 10.8513C25.6445 9.72132 27.1188 9.33213 28.267 9.98451C29.4162 10.6369 29.8115 12.088 29.148 13.2179L21.3393 26.5236C20.9247 27.2298 21.1706 28.1342 21.889 28.5417C22.6073 28.9502 23.5259 28.7073 23.9405 28.0011L31.7492 14.6954C33.2408 12.154 32.3528 8.89315 29.7688 7.42581C27.1859 5.95847 23.8704 6.83237 22.3797 9.37379Z" fill="url(#paint0_linear_1628_312)"/>
<path d="M119.912 14.0158C119.912 14.4717 120.612 14.7002 120.964 14.4106C121.17 14.2411 121.391 14.0899 121.628 13.957C122.1 13.6876 122.626 13.5054 123.206 13.4105C123.751 13.3214 124.202 13.7807 124.202 14.333V15.647C124.202 16.0634 123.865 16.401 123.448 16.401C122.287 16.401 121.403 16.6957 120.796 17.285C120.207 17.8743 119.912 18.897 119.912 20.353V26.893C119.912 27.4453 119.465 27.893 118.912 27.893H117.948C117.396 27.893 116.948 27.4453 116.948 26.893V14.567C116.948 14.0147 117.396 13.567 117.948 13.567H119.463C119.711 13.567 119.912 13.7679 119.912 14.0158Z" fill="#0F172A"/>
<path d="M114.811 20.379C114.811 20.5898 114.806 20.7925 114.795 20.9873C114.768 21.4778 114.346 21.835 113.855 21.835H104.84C104.258 21.835 103.785 22.3377 103.957 22.8934C104.165 23.5605 104.524 24.1264 105.035 24.591C105.798 25.2843 106.734 25.631 107.843 25.631C109.208 25.631 110.23 25.1423 110.909 24.1649C111.126 23.8524 111.464 23.629 111.845 23.629H113.04C113.721 23.629 114.201 24.2994 113.858 24.888C113.413 25.6539 112.812 26.3176 112.055 26.879C110.929 27.711 109.525 28.127 107.843 28.127C106.474 28.127 105.243 27.8237 104.151 27.217C103.077 26.593 102.227 25.7263 101.603 24.617C100.997 23.4903 100.693 22.1903 100.693 20.717C100.693 19.2437 100.988 17.9523 101.577 16.843C102.184 15.7163 103.025 14.8497 104.099 14.243C105.191 13.6363 106.439 13.333 107.843 13.333C109.195 13.333 110.4 13.6277 111.457 14.217C112.515 14.8063 113.338 15.6383 113.927 16.713C114.517 17.7703 114.811 18.9923 114.811 20.379ZM110.701 19.443C111.26 19.443 111.728 18.9774 111.58 18.4389C111.404 17.8004 111.06 17.2598 110.547 16.817C109.785 16.1583 108.84 15.829 107.713 15.829C106.691 15.829 105.815 16.1583 105.087 16.817C104.62 17.2291 104.273 17.7379 104.049 18.3433C103.84 18.9073 104.319 19.443 104.92 19.443H110.701Z" fill="#0F172A"/>
<path d="M92.4522 23.6101C92.639 24.1476 93.3991 24.1476 93.5858 23.6101L96.8416 14.2392C96.9813 13.837 97.3604 13.5674 97.7862 13.5674H98.7697C99.4702 13.5674 99.9536 14.269 99.7042 14.9235L95.0064 27.2495C94.8587 27.6372 94.4869 27.8934 94.072 27.8934H91.9152C91.4998 27.8934 91.1276 27.6365 90.9802 27.248L86.3049 14.922C86.0567 14.2677 86.54 13.5674 87.2398 13.5674H88.2518C88.6776 13.5674 89.0567 13.837 89.1964 14.2392L92.4522 23.6101Z" fill="#0F172A"/>
<path d="M82.9136 11.669C82.3763 11.669 81.9256 11.487 81.5616 11.123C81.1976 10.759 81.0156 10.3084 81.0156 9.77105C81.0156 9.23371 81.1976 8.78305 81.5616 8.41905C81.9256 8.05505 82.3763 7.87305 82.9136 7.87305C83.4336 7.87305 83.8756 8.05505 84.2396 8.41905C84.6036 8.78305 84.7856 9.23371 84.7856 9.77105C84.7856 10.3084 84.6036 10.759 84.2396 11.123C83.8756 11.487 83.4336 11.669 82.9136 11.669ZM83.3696 13.567C83.9219 13.567 84.3696 14.0148 84.3696 14.567V26.893C84.3696 27.4453 83.9219 27.893 83.3696 27.893H82.4056C81.8533 27.893 81.4056 27.4453 81.4056 26.893V14.567C81.4056 14.0148 81.8533 13.567 82.4056 13.567H83.3696Z" fill="#0F172A"/>
<path d="M72.5288 13.333C73.6554 13.333 74.6608 13.567 75.5448 14.035C76.4461 14.503 77.1481 15.1963 77.6508 16.115C78.1534 17.0337 78.4048 18.143 78.4048 19.443V26.893C78.4048 27.4453 77.9571 27.893 77.4048 27.893H76.4668C75.9145 27.893 75.4668 27.4453 75.4668 26.893V19.885C75.4668 18.6023 75.1461 17.623 74.5048 16.947C73.8634 16.2537 72.9881 15.907 71.8788 15.907C70.7694 15.907 69.8854 16.2537 69.2268 16.947C68.5854 17.623 68.2648 18.6023 68.2648 19.885V26.893C68.2648 27.4453 67.8171 27.893 67.2648 27.893H66.3008C65.7485 27.893 65.3008 27.4453 65.3008 26.893V14.567C65.3008 14.0147 65.7485 13.567 66.3008 13.567H67.8323C68.0711 13.567 68.2648 13.7606 68.2648 13.9995C68.2648 14.4053 68.8124 14.6199 69.1406 14.3814C69.435 14.1675 69.7583 13.9827 70.1108 13.827C70.8734 13.4977 71.6794 13.333 72.5288 13.333Z" fill="#0F172A"/>
<path d="M50.0675 9.82324C50.6198 9.82324 51.0675 10.271 51.0675 10.8232V21.3412C51.0675 22.7106 51.4228 23.7419 52.1335 24.4352C52.8615 25.1286 53.8669 25.4752 55.1495 25.4752C56.4495 25.4752 57.4549 25.1286 58.1655 24.4352C58.8935 23.7419 59.2575 22.7106 59.2575 21.3412V10.8232C59.2575 10.271 59.7052 9.82324 60.2575 9.82324H61.2215C61.7738 9.82324 62.2215 10.271 62.2215 10.8232V21.2892C62.2215 22.7626 61.9009 24.0106 61.2595 25.0332C60.6182 26.0559 59.7602 26.8186 58.6855 27.3212C57.6108 27.8239 56.4235 28.0752 55.1235 28.0752C53.8235 28.0752 52.6362 27.8239 51.5615 27.3212C50.5042 26.8186 49.6635 26.0559 49.0395 25.0332C48.4155 24.0106 48.1035 22.7626 48.1035 21.2892V10.8232C48.1035 10.271 48.5512 9.82324 49.1035 9.82324H50.0675Z" fill="#0F172A"/>
<defs>
<linearGradient id="paint0_linear_1628_312" x1="5.56177" y1="9.35721" x2="32.9018" y2="26.8722" gradientUnits="userSpaceOnUse">
<stop stop-color="#0048FF"/>
<stop offset="0.328125" stop-color="#0C81ED"/>
<stop offset="0.65" stop-color="#029DCE"/>
<stop offset="0.88" stop-color="#00BBB0"/>
<stop offset="0.963542" stop-color="#00C5A8"/>
</linearGradient>
</defs>
</svg>
